<svg width="335" height="75" viewBox="0 0 335 75" fill="none" xmlns="http://www.w3.org/2000/svg">
<g clip-path="url(#clip0)">
<g clip-path="url(#clip1)">
<path d="M60.3103 32.8V62.4564C60.3103 64.895 58.3338 66.8702 55.8966 66.8702H10.1037C7.66642 66.8702 5.68988 64.895 5.68988 62.4564V32.8H60.3103Z" fill="#FE4F60"/>
<path d="M40.7243 3.12982C37.4039 3.12982 34.507 4.97326 33.0001 7.6898C30.1381 2.53024 23.174 1.57866 19.0334 5.71547C13.6786 11.0748 17.1653 20.279 24.697 20.766C25.1371 20.7951 40.8614 20.7953 41.3033 20.766C45.9286 20.466 49.5518 16.5972 49.5518 11.9575C49.5518 7.08594 45.6113 3.12982 40.7243 3.12982V3.12982ZM18.6554 11.9574C18.6554 8.28897 21.6256 5.33671 25.276 5.33671C28.9268 5.33671 31.8967 8.30677 31.8967 11.9574V18.578H25.276C21.6003 18.578 18.6554 15.5805 18.6554 11.9574ZM41.1591 18.5638C40.994 18.5845 40.7553 18.5782 34.1036 18.5782V11.9575C34.1036 6.05919 41.2609 3.13493 45.4056 7.27532C46.6561 8.52704 47.3449 10.1898 47.3449 11.9575C47.3449 15.4376 44.6278 18.3396 41.1591 18.5638V18.5638Z" fill="#D6F4FC"/>
<path d="M65 22.6994V28.3862C65 30.8248 63.0234 32.8 60.5862 32.8H5.41402C2.97679 32.8 1.00024 30.8248 1.00024 28.3862V22.6994C1.00024 20.2607 2.97679 18.2856 5.41402 18.2856H60.5862C63.0234 18.2856 65 20.2607 65 22.6994Z" fill="#FF6D7A"/>
<path d="M60.6218 23.8028H10.9313C8.49405 23.8028 6.51751 25.778 6.51751 28.2166V28.4028C6.51751 31.9561 1.17022 32.1444 1.00512 28.5949C0.998222 28.4461 1.00029 28.8442 1.00029 22.6994C1.00029 20.2607 2.97683 18.2856 5.41406 18.2856H60.5862C64.4011 18.2856 64.2207 23.8028 60.6218 23.8028Z" fill="#FF7C87"/>
<path d="M5.68988 32.8H60.3103V37.4896H5.68988V32.8Z" fill="#E84857"/>
<path d="M37.9656 66.8702H28.0346C28.0346 65.9007 28.0346 33.708 28.0346 32.8H37.9656V66.8702Z" fill="#D6F4FC"/>
<path d="M28.0346 32.8H37.9656V37.4896H28.0346V32.8Z" fill="#BDEFFC"/>
<path d="M42.9311 32.8C41.9833 32.8 24.0202 32.8 23.0692 32.8C23.0692 30.8203 23.0692 20.349 23.0692 18.2856H42.9311V32.8Z" fill="#D6F4FC"/>
<path d="M42.9311 18.2856V23.8028H23.0692V18.2856H42.9311Z" fill="#F1FAFC"/>
</g>
<path d="M94.9591 54.15C94.0844 54.15 93.4124 53.9154 92.9431 53.446C92.4738 52.9767 92.2391 52.294 92.2391 51.398V34.31C92.2391 33.4354 92.4951 32.742 93.0071 32.23C93.5404 31.6967 94.2551 31.43 95.1511 31.43C96.0684 31.43 96.7938 31.6967 97.3271 32.23C97.8604 32.742 98.1271 33.4354 98.1271 34.31V49.382H105.487C107.343 49.382 108.271 50.182 108.271 51.782C108.271 52.5927 108.036 53.19 107.567 53.574C107.119 53.958 106.426 54.15 105.487 54.15H94.9591ZM119.408 54.438C116.144 54.438 113.658 53.606 111.952 51.942C110.266 50.278 109.424 47.846 109.424 44.646V34.31C109.424 33.4354 109.68 32.742 110.192 32.23C110.725 31.6967 111.429 31.43 112.304 31.43C113.178 31.43 113.872 31.6967 114.384 32.23C114.917 32.742 115.184 33.4354 115.184 34.31V44.87C115.184 46.4914 115.546 47.7394 116.272 48.614C116.997 49.4887 118.042 49.926 119.408 49.926C120.773 49.926 121.818 49.4887 122.544 48.614C123.269 47.7394 123.632 46.4914 123.632 44.87V34.31C123.632 33.4354 123.888 32.742 124.4 32.23C124.933 31.6967 125.637 31.43 126.512 31.43C127.386 31.43 128.09 31.6967 128.624 32.23C129.157 32.742 129.424 33.4354 129.424 34.31V44.646C129.424 47.8247 128.56 50.2567 126.832 51.942C125.125 53.606 122.65 54.438 119.408 54.438ZM144.083 54.438C141.822 54.438 139.838 53.9687 138.131 53.03C136.446 52.0914 135.134 50.7474 134.195 48.998C133.278 47.2487 132.819 45.2007 132.819 42.854C132.819 40.5287 133.278 38.4914 134.195 36.742C135.134 34.9927 136.446 33.6487 138.131 32.71C139.838 31.7714 141.822 31.302 144.083 31.302C146.793 31.302 149.171 32.0167 151.219 33.446C151.582 33.702 151.838 33.9794 151.987 34.278C152.158 34.5767 152.243 34.9607 152.243 35.43C152.243 36.0914 152.051 36.6567 151.667 37.126C151.305 37.574 150.857 37.798 150.323 37.798C150.003 37.798 149.715 37.7554 149.459 37.67C149.203 37.5634 148.905 37.4034 148.563 37.19C147.817 36.742 147.113 36.422 146.451 36.23C145.79 36.038 145.107 35.942 144.403 35.942C142.505 35.942 141.086 36.518 140.147 37.67C139.23 38.8007 138.771 40.5287 138.771 42.854C138.771 45.2007 139.23 46.95 140.147 48.102C141.086 49.2327 142.505 49.798 144.403 49.798C145.043 49.798 145.662 49.702 146.259 49.51C146.857 49.2967 147.625 48.9767 148.563 48.55C149.011 48.3154 149.342 48.1554 149.555 48.07C149.769 47.9847 150.025 47.942 150.323 47.942C150.857 47.942 151.305 48.1767 151.667 48.646C152.051 49.094 152.243 49.6487 152.243 50.31C152.243 50.758 152.158 51.142 151.987 51.462C151.838 51.7607 151.582 52.038 151.219 52.294C149.171 53.7234 146.793 54.438 144.083 54.438ZM174.123 49.734C174.678 50.2674 174.955 50.886 174.955 51.59C174.955 52.294 174.688 52.9127 174.155 53.446C173.622 53.9794 172.992 54.246 172.267 54.246C171.478 54.246 170.752 53.9047 170.091 53.222L160.971 43.878V51.43C160.971 52.326 160.704 53.0407 160.171 53.574C159.638 54.086 158.912 54.342 157.995 54.342C157.099 54.342 156.384 54.086 155.851 53.574C155.339 53.0407 155.083 52.326 155.083 51.43V34.31C155.083 33.4354 155.339 32.742 155.851 32.23C156.384 31.6967 157.099 31.43 157.995 31.43C158.912 31.43 159.638 31.6967 160.171 32.23C160.704 32.742 160.971 33.4354 160.971 34.31V41.35L169.963 32.294C170.518 31.718 171.147 31.43 171.851 31.43C172.555 31.43 173.174 31.6967 173.707 32.23C174.24 32.742 174.507 33.35 174.507 34.054C174.507 34.758 174.198 35.4087 173.579 36.006L167.019 42.438L174.123 49.734ZM191.349 32.358C191.904 31.718 192.554 31.398 193.301 31.398C194.005 31.398 194.634 31.6754 195.189 32.23C195.765 32.7634 196.053 33.382 196.053 34.086C196.053 34.7047 195.818 35.2914 195.349 35.846L188.629 43.622V51.43C188.629 52.3687 188.352 53.094 187.797 53.606C187.264 54.0967 186.57 54.342 185.717 54.342C184.842 54.342 184.128 54.0967 183.573 53.606C183.018 53.094 182.741 52.3687 182.741 51.43V43.622L176.085 35.846C175.594 35.2914 175.349 34.694 175.349 34.054C175.349 33.35 175.626 32.7314 176.181 32.198C176.736 31.6647 177.365 31.398 178.069 31.398C178.816 31.398 179.466 31.718 180.021 32.358L185.685 39.078L191.349 32.358ZM210.214 54.342C209.318 54.342 208.603 54.086 208.07 53.574C207.558 53.0407 207.302 52.326 207.302 51.43V34.31C207.302 33.4354 207.558 32.742 208.07 32.23C208.603 31.6967 209.318 31.43 210.214 31.43C211.131 31.43 211.856 31.6967 212.39 32.23C212.923 32.742 213.19 33.4354 213.19 34.31V51.43C213.19 52.326 212.923 53.0407 212.39 53.574C211.856 54.086 211.131 54.342 210.214 54.342ZM234.614 31.43C235.425 31.43 236.086 31.6967 236.598 32.23C237.132 32.7634 237.398 33.4567 237.398 34.31V51.43C237.398 52.3047 237.142 53.0087 236.63 53.542C236.118 54.0754 235.457 54.342 234.646 54.342C233.686 54.342 232.961 54.022 232.47 53.382L222.742 41.254V51.43C222.742 52.3047 222.497 53.0087 222.006 53.542C221.516 54.0754 220.854 54.342 220.022 54.342C219.212 54.342 218.55 54.0754 218.038 53.542C217.526 53.0087 217.27 52.3047 217.27 51.43V34.31C217.27 33.4567 217.526 32.7634 218.038 32.23C218.55 31.6967 219.212 31.43 220.022 31.43C220.94 31.43 221.654 31.75 222.166 32.39L231.894 44.486V34.31C231.894 33.4354 232.14 32.742 232.63 32.23C233.142 31.6967 233.804 31.43 234.614 31.43ZM253.365 54.15C252.491 54.15 251.819 53.9154 251.349 53.446C250.88 52.9767 250.645 52.294 250.645 51.398V34.31C250.645 33.4354 250.901 32.742 251.413 32.23C251.947 31.6967 252.661 31.43 253.557 31.43C254.475 31.43 255.2 31.6967 255.733 32.23C256.267 32.742 256.533 33.4354 256.533 34.31V49.382H263.893C265.749 49.382 266.677 50.182 266.677 51.782C266.677 52.5927 266.443 53.19 265.973 53.574C265.525 53.958 264.832 54.15 263.893 54.15H253.365ZM271.87 54.342C270.974 54.342 270.259 54.086 269.726 53.574C269.214 53.0407 268.958 52.326 268.958 51.43V34.31C268.958 33.4354 269.214 32.742 269.726 32.23C270.259 31.6967 270.974 31.43 271.87 31.43C272.787 31.43 273.513 31.6967 274.046 32.23C274.579 32.742 274.846 33.4354 274.846 34.31V51.43C274.846 52.326 274.579 53.0407 274.046 53.574C273.513 54.086 272.787 54.342 271.87 54.342ZM295.119 32.966C295.353 32.454 295.684 32.07 296.111 31.814C296.537 31.558 297.007 31.43 297.519 31.43C298.287 31.43 298.98 31.6754 299.599 32.166C300.217 32.6567 300.527 33.2754 300.527 34.022C300.527 34.3847 300.431 34.758 300.239 35.142L291.791 52.582C291.513 53.158 291.097 53.606 290.543 53.926C289.988 54.2247 289.391 54.374 288.751 54.374C288.111 54.374 287.513 54.2247 286.959 53.926C286.404 53.606 285.988 53.158 285.711 52.582L277.263 35.142C277.092 34.8007 277.007 34.4274 277.007 34.022C277.007 33.2967 277.327 32.6887 277.967 32.198C278.607 31.686 279.321 31.43 280.111 31.43C280.623 31.43 281.092 31.558 281.519 31.814C281.967 32.07 282.308 32.454 282.543 32.966L288.847 46.598L295.119 32.966ZM305.428 54.15C304.553 54.15 303.881 53.9154 303.412 53.446C302.943 52.9767 302.708 52.3047 302.708 51.43V34.31C302.708 33.4354 302.943 32.7634 303.412 32.294C303.881 31.8247 304.553 31.59 305.428 31.59H316.5C317.417 31.59 318.111 31.782 318.58 32.166C319.049 32.55 319.284 33.1047 319.284 33.83C319.284 35.366 318.356 36.134 316.5 36.134H308.436V40.422H315.86C317.716 40.422 318.644 41.1794 318.644 42.694C318.644 43.4194 318.409 43.974 317.94 44.358C317.471 44.742 316.777 44.934 315.86 44.934H308.436V49.606H316.5C318.356 49.606 319.284 50.374 319.284 51.91C319.284 52.6354 319.049 53.19 318.58 53.574C318.111 53.958 317.417 54.15 316.5 54.15H305.428Z" fill="#424141"/>
</g>
<defs>
<clipPath id="clip0">
<rect width="335" height="75" fill="white"/>
</clipPath>
<clipPath id="clip1">
<rect width="64" height="64" fill="white" transform="translate(1 3)"/>
</clipPath>
</defs>
</svg>
